<?xml version="1.0" encoding="UTF-8"?><svg id="Layer_2" xmlns="http://www.w3.org/2000/svg" viewBox="0 0 30 30"><defs><style>.cls-1{fill:#304a5e;}.cls-2{fill:#51ade1;}</style></defs><g id="Layer_1-2"><g><path class="cls-2" d="M30,7.54c0,.79-.12,1.63-.36,2.49-.24,.87-.69,1.71-1.35,2.53-.66,.82-1.52,1.43-2.56,1.84-1.05,.41-2.12,.61-3.22,.61s-2.14-.18-3.08-.54c-.94-.36-1.74-.87-2.4-1.53-.66-.66-1.16-1.45-1.5-2.37s-.52-1.93-.52-3.02,.18-2.07,.53-3,.85-1.74,1.51-2.42c.65-.68,1.44-1.21,2.38-1.57,.93-.36,1.96-.54,3.08-.54,2.24,0,4.04,.71,5.43,2.12s2.07,3.22,2.07,5.43Zm-1.61,.03c0-1.84-.54-3.34-1.61-4.49s-2.5-1.72-4.28-1.72-3.27,.57-4.33,1.72-1.59,2.64-1.59,4.49,.53,3.29,1.59,4.4c1.06,1.11,2.5,1.67,4.33,1.67,.66,0,1.34-.1,2.02-.29,.69-.19,1.31-.53,1.88-1.01s1.04-1.11,1.42-1.91c.38-.79,.57-1.75,.57-2.87Z"/><path class="cls-1" d="M14.99,7.54c0,.79-.12,1.63-.36,2.49-.24,.87-.69,1.71-1.35,2.53-.66,.82-1.52,1.43-2.56,1.84-1.05,.41-2.12,.61-3.22,.61s-2.14-.18-3.08-.54c-.94-.36-1.74-.87-2.4-1.53-.66-.66-1.16-1.45-1.5-2.37s-.52-1.93-.52-3.02,.18-2.07,.53-3,.85-1.74,1.51-2.42c.65-.68,1.44-1.21,2.38-1.57,.93-.36,1.96-.54,3.08-.54,2.24,0,4.04,.71,5.43,2.12,1.38,1.41,2.07,3.22,2.07,5.43Zm-1.61,.03c0-1.84-.54-3.34-1.61-4.49s-2.5-1.72-4.28-1.72-3.27,.57-4.33,1.72-1.59,2.64-1.59,4.49,.53,3.29,1.59,4.4c1.06,1.11,2.5,1.67,4.33,1.67,.66,0,1.34-.1,2.02-.29,.69-.19,1.31-.53,1.88-1.01s1.04-1.11,1.42-1.91c.38-.79,.57-1.75,.57-2.87Z"/><path class="cls-1" d="M14.99,22.53c0,.79-.12,1.63-.36,2.49-.24,.87-.69,1.71-1.35,2.53-.66,.82-1.52,1.43-2.56,1.84-1.05,.41-2.12,.61-3.22,.61s-2.14-.18-3.08-.54c-.94-.36-1.74-.87-2.4-1.53-.66-.66-1.16-1.45-1.5-2.37s-.52-1.93-.52-3.02,.18-2.07,.53-3,.85-1.74,1.51-2.42c.65-.68,1.44-1.21,2.38-1.57,.93-.36,1.96-.54,3.08-.54,2.24,0,4.04,.71,5.43,2.12s2.07,3.22,2.07,5.43Zm-1.61,.03c0-1.84-.54-3.34-1.61-4.49s-2.5-1.72-4.28-1.72-3.27,.57-4.33,1.72-1.59,2.64-1.59,4.49,.53,3.29,1.59,4.4c1.06,1.11,2.5,1.67,4.33,1.67,.66,0,1.34-.1,2.02-.29,.69-.19,1.31-.53,1.88-1.01s1.04-1.11,1.42-1.91c.38-.79,.57-1.75,.57-2.87Z"/><path class="cls-1" d="M29.98,22.53c0,.79-.12,1.63-.36,2.49-.24,.87-.69,1.71-1.35,2.53-.66,.82-1.52,1.43-2.56,1.84-1.05,.41-2.12,.61-3.22,.61s-2.14-.18-3.08-.54c-.94-.36-1.74-.87-2.4-1.53-.66-.66-1.16-1.45-1.5-2.37s-.52-1.93-.52-3.02,.18-2.07,.53-3,.85-1.74,1.51-2.42c.65-.68,1.44-1.21,2.38-1.57,.93-.36,1.96-.54,3.08-.54,2.24,0,4.04,.71,5.43,2.12s2.07,3.22,2.07,5.43Zm-1.61,.03c0-1.84-.54-3.34-1.61-4.49s-2.5-1.72-4.28-1.72-3.27,.57-4.33,1.72-1.59,2.64-1.59,4.49,.53,3.29,1.59,4.4c1.06,1.11,2.5,1.67,4.33,1.67,.66,0,1.34-.1,2.02-.29,.69-.19,1.31-.53,1.88-1.01s1.04-1.11,1.42-1.91c.38-.79,.57-1.75,.57-2.87Z"/></g></g></svg>